<svg width="14" height="13" viewBox="0 0 14 13" fill="none" xmlns="http://www.w3.org/2000/svg">
<path d="M4.22916 11.9588V2.17821L6.08953 4.30205C6.19556 4.42414 6.34658 4.48841 6.49438 4.48841C6.63575 4.48841 6.77712 4.43057 6.87994 4.32132C6.9924 4.20565 7.04703 4.05143 7.04703 3.90363C7.04703 3.76225 6.99882 3.62088 6.89922 3.50521L3.98175 0.176467C3.78254 -0.0516609 3.42267 -0.0516609 3.22346 0.176467L0.306002 3.50521C0.206396 3.62088 0.158203 3.76225 0.158203 3.90363C0.158203 4.05464 0.212822 4.20565 0.325279 4.32132C0.431311 4.43057 0.57269 4.48841 0.710851 4.48841C0.861866 4.48841 1.00966 4.42414 1.11569 4.30205L2.97606 2.17821V11.9909C2.97606 12.3444 3.27488 12.6271 3.63153 12.6078C3.9689 12.5918 4.22273 12.2897 4.22273 11.9556L4.22916 11.9588Z" fill="#231F20"/>
<path d="M9.08739 0.658273V10.4389L7.22703 8.31502C7.121 8.19292 6.96998 8.12866 6.82218 8.12866C6.6808 8.12866 6.53943 8.1865 6.43661 8.29574C6.32415 8.41141 6.26953 8.56563 6.26953 8.71344C6.26953 8.85481 6.31772 8.99619 6.41733 9.11186L9.3348 12.4406C9.53401 12.6687 9.89387 12.6687 10.0931 12.4406L13.0106 9.11186C13.1102 8.99619 13.1584 8.85481 13.1584 8.71344C13.1584 8.56242 13.1037 8.41141 12.9913 8.29574C12.8852 8.1865 12.7439 8.12866 12.6057 8.12866C12.4547 8.12866 12.3069 8.19292 12.2009 8.31502L10.3405 10.4389V0.62614C10.3405 0.272702 10.0417 -0.0100471 9.68503 0.00923135C9.34765 0.0252967 9.09382 0.327325 9.09382 0.661484L9.08739 0.658273Z" fill="#231F20"/>
</svg>
