<svg width="26" height="16" viewBox="0 0 26 16" fill="none" xmlns="http://www.w3.org/2000/svg">
<path d="M24.0133 7.07891H5.23095L9.92838 2.99355C10.1975 2.76126 10.345 2.4331 10.3413 2.10126C10.3413 1.79154 10.2123 1.48181 9.97263 1.25321C9.71453 1.00617 9.379 0.888184 9.04715 0.888184C8.73743 0.888184 8.42034 0.991423 8.16592 1.21265L0.802683 7.61723C0.297543 8.05601 0.297543 8.84137 0.802683 9.28014L8.16592 15.681C8.41665 15.8986 8.73374 16.0055 9.04715 16.0055C9.379 16.0055 9.71453 15.8875 9.97263 15.6405C10.2123 15.4119 10.3413 15.1022 10.3413 14.7924C10.3413 14.4643 10.1975 14.1324 9.92838 13.9001L5.23095 9.81478H24.0907C24.8687 9.81478 25.4992 9.16215 25.455 8.3731C25.4144 7.63198 24.7507 7.07891 24.0133 7.07891Z" fill="white"/>
</svg>
