<svg width="35" height="35" viewBox="0 0 35 35" fill="none" xmlns="http://www.w3.org/2000/svg">
<path d="M27.0461 0H7.95392C3.56109 0 0 3.56109 0 7.95392V27.0461C0 31.4389 3.56109 35 7.95392 35H27.0461C31.4389 35 35 31.4389 35 27.0461V7.95392C35 3.56109 31.4389 0 27.0461 0Z" fill="#FFC248"/>
<path d="M9.12891 18.8588L13.8012 23.5311C14.2202 23.9501 14.7754 24.1649 15.3202 24.1596C15.8649 24.1596 16.4254 23.9501 16.8392 23.5311L25.9375 14.4328C26.3984 13.9718 26.3984 13.228 25.9375 12.7671C25.4766 12.3062 24.7328 12.3062 24.2718 12.7671L15.1735 21.8654L15.3202 22.0121V21.8026C15.273 21.8026 15.2102 21.8235 15.1735 21.8654L15.3202 22.0121L15.4668 21.8654C15.4302 21.8288 15.3673 21.8026 15.3202 21.8026V22.0121L15.4668 21.8654L10.7946 17.1932C10.3337 16.7322 9.58985 16.7322 9.12891 17.1932C8.66797 17.6541 8.66797 18.3979 9.12891 18.8588Z" fill="black"/>
<path d="M15.1735 21.8654L24.2718 12.7671C24.7328 12.3062 25.4766 12.3062 25.9375 12.7671C26.3984 13.228 26.3984 13.9718 25.9375 14.4328L16.8392 23.5311C16.4254 23.9501 15.8649 24.1596 15.3202 24.1596C14.7754 24.1649 14.2202 23.9501 13.8012 23.5311L9.12891 18.8588C8.66797 18.3979 8.66797 17.6541 9.12891 17.1932C9.58985 16.7322 10.3337 16.7322 10.7946 17.1932L15.4668 21.8654M15.1735 21.8654L15.3202 22.0121M15.1735 21.8654C15.2102 21.8235 15.273 21.8026 15.3202 21.8026M15.3202 22.0121V21.8026M15.3202 22.0121L15.4668 21.8654M15.3202 21.8026C15.3673 21.8026 15.4302 21.8288 15.4668 21.8654" stroke="black"/>
</svg>
